# xmcd CD database file
# Copyright (C) 1996 Ti Kan
#
# Track frame offsets:
#  150
#  1057
#  18447
#  37072
#  55237
#  72985
#  89930
#  111430
#  129457
#  152450
#  166417
#  187952
#  204947
#  220715
#  232990
#  257615
#  276257
#
# Disc length: 3878 seconds
#
# Revision: 1
# Processed by: cddbd v1.4b41PL1 Copyright (c) Steve Scherf et al.
# Submitted via: CDWizzard Release:4.15
#
DISCID=e80f2411
DTITLE=Blue Dogs - Live At the Dock Street Theatre
DYEAR=1900
DGENRE=
TTITLE0=Introduction
TTITLE1=River Material
TTITLE2=Simple Complication
TTITLE3=Dark Hollow
TTITLE4=Fishin'
TTITLE5=De Doo Da Da
TTITLE6=Brown-Eyed Women
TTITLE7=Marie Laveau
TTITLE8=Muleskinner Blues
TTITLE9=Ten Degrees
TTITLE10=I've Been To Memphis
TTITLE11=Mighty Dark To Travel
TTITLE12=Creatures In My House
TTITLE13=Watchful Cow
TTITLE14=Rain King
TTITLE15=Life's Railway To Heaven
TTITLE16=Sweet Heaven When I Die
EXTD=
EXTT0=
EXTT1=
EXTT2=
EXTT3=
EXTT4=
EXTT5=
EXTT6=
EXTT7=
EXTT8=
EXTT9=
EXTT10=
EXTT11=
EXTT12=
EXTT13=
EXTT14=
EXTT15=
EXTT16=
PLAYORDER=
